<?xml version="1.0" encoding="utf-8"?>
<!-- Generator: Adobe Illustrator 24.3.0, SVG Export Plug-In . SVG Version: 6.00 Build 0)  -->
<svg version="1.1" id="图层_1" xmlns="http://www.w3.org/2000/svg" xmlns:xlink="http://www.w3.org/1999/xlink" x="0px" y="0px"
	 viewBox="0 0 600 600" style="enable-background:new 0 0 600 600;" xml:space="preserve">
<style type="text/css">
	.st0{fill:#5A79DB;}
	.st1{fill:#FFFFFF;}
</style>
<g>
	<g>
		<path class="st0" d="M202.9,305.9c12.9,4,30.3,7.1,50.6,9c0.5-0.9,1.1-1.8,1.6-2.6l0.2-0.2l0.2-0.2l44.5-67.5l44.5,67.5l0.2,0.2
			l0.2,0.2c0.6,0.9,1.1,1.8,1.6,2.6c20.3-1.9,37.7-5.1,50.6-9c-2.9-7.6-6.6-14.8-11.1-21.5l-10.6-16.1h0l-4.3-6.5h0L300,153.9
			l-86,130.5C209.5,291,205.8,298.2,202.9,305.9z"/>
	</g>
	<g>
		<path class="st0" d="M353.6,348.6c-3.1,26.8-25.9,47.8-53.6,47.8c-27.7,0-50.5-20.9-53.6-47.8c-18.5-2-35.4-4.9-50-8.7
			c0,0.8-0.1,1.6-0.1,2.4c0,57.3,46.4,103.7,103.7,103.7c57.3,0,103.7-46.4,103.7-103.7c0-0.8-0.1-1.6-0.1-2.4
			C389,343.7,372.1,346.7,353.6,348.6z"/>
	</g>
</g>
</svg>
