<?xml version="1.0" encoding="utf-8"?>
<!-- Generator: Adobe Illustrator 24.3.0, SVG Export Plug-In . SVG Version: 6.00 Build 0)  -->
<svg version="1.1" id="图层_1" xmlns="http://www.w3.org/2000/svg" xmlns:xlink="http://www.w3.org/1999/xlink" x="0px" y="0px"
	 viewBox="0 0 600 600" style="enable-background:new 0 0 600 600;" xml:space="preserve">
<style type="text/css">
	.st0{fill:#5A79DB;}
	.st1{fill:#FFFFFF;}
</style>
<g>
	<g>
		<path d="M197,317.5v-51h8.4l22.8-0.1c9.2,0,16.4,2.2,21.5,6.5c5.1,4.3,7.6,10.7,7.6,19c0,8.4-2.5,14.7-7.6,19
			c-5.1,4.3-12.2,6.5-21.5,6.5H197z M227.5,275.7h-19v32.5h19c6,0,10.5-1.3,13.6-3.9c3.1-2.6,4.6-6.7,4.6-12.3
			c0-5.7-1.5-9.8-4.6-12.4C238,277,233.5,275.7,227.5,275.7z"/>
		<path d="M262.7,317.5v-36.7h28.1c4.1,0,7.2,1,9.1,3.1c1.9,2.1,2.9,4.8,2.9,8.2v7.6h-10.5v-6.3c0-2.9-1.4-4.3-4.3-4.3h-14.9v28.5
			H262.7z"/>
		<path d="M328.1,317.9c-6.4,0-11.3-1.6-14.9-4.7c-3.6-3.2-5.3-7.8-5.3-13.9c0-6.2,1.8-10.9,5.3-14c3.6-3.2,8.5-4.7,14.9-4.7h13.2
			c6.4,0,11.3,1.6,14.9,4.7c3.6,3.2,5.3,7.8,5.3,14c0,6.1-1.8,10.8-5.3,13.9c-3.6,3.2-8.5,4.7-14.9,4.7H328.1z M328.1,309.7h13.2
			c3.1,0,5.5-0.9,7.1-2.6c1.6-1.7,2.5-4.4,2.5-7.9c0-3.6-0.8-6.3-2.5-8c-1.6-1.7-4-2.6-7.1-2.6h-13.2c-3.1,0-5.5,0.9-7.1,2.6
			s-2.5,4.4-2.5,8c0,3.6,0.8,6.2,2.5,7.9C322.6,308.8,325,309.7,328.1,309.7z"/>
		<path d="M367.3,333.6v-52.8h26.4c6.4,0,11.3,1.6,14.9,4.7c3.6,3.1,5.3,7.7,5.3,13.6c0,6-1.8,10.6-5.3,13.7
			c-3.6,3.1-8.5,4.7-14.9,4.7h-16v16H367.3z M393.7,289h-16v20.3h16c3.1,0,5.5-0.8,7.1-2.5c1.6-1.7,2.5-4.2,2.5-7.7
			c0-3.4-0.8-5.9-2.5-7.6C399.1,289.8,396.7,289,393.7,289z"/>
		<path d="M419.6,317.5v-51H430v51H419.6z"/>
		<path d="M455.9,317.9c-6.4,0-11.3-1.6-14.9-4.7c-3.6-3.2-5.3-7.8-5.3-13.9c0-6.2,1.8-10.9,5.3-14c3.6-3.2,8.5-4.7,14.9-4.7h17.8
			c4.2,0,7.4,1,9.6,3c2.2,2,3.3,4.8,3.3,8.5c0,7.5-4.3,11.2-12.9,11.2h-27c1,4.4,4,6.6,9.1,6.6h28.9v8.2H455.9z M455.9,288.6
			c-4.9,0-7.9,2.1-9.1,6.2h26.4c1,0,1.7-0.3,2.2-0.9c0.5-0.6,0.8-1.4,0.8-2.4c0-2-1-3-3.1-3H455.9z"/>
		<path d="M512.9,317.5c-4.1,0-7.2-1-9.1-3.1c-2-2.1-2.9-4.8-2.9-8.2V289h-10.6v-8.2h10.6v-11.3h10.3v11.3h15.3v8.2h-15.3v16
			c0,2.9,1.4,4.4,4.3,4.4h13v8.2H512.9z"/>
	</g>
	<g>
		<g>
			<path class="st0" d="M74.4,302.5c5.6,1.7,13.2,3.1,22,3.9c0.2-0.4,0.5-0.8,0.7-1.1l0.1-0.1l0.1-0.1l19.4-29.4l19.4,29.4l0.1,0.1
				l0.1,0.1c0.3,0.4,0.5,0.8,0.7,1.2c8.8-0.8,16.4-2.2,22-3.9c-1.2-3.3-2.9-6.5-4.8-9.3l-4.6-7h0l-1.9-2.8h0l-30.9-47l-37.4,56.8
				C77.3,296.1,75.7,299.2,74.4,302.5z"/>
		</g>
		<g>
			<path class="st0" d="M140,321.2c-1.4,11.7-11.3,20.8-23.3,20.8s-22-9.1-23.3-20.8c-8.1-0.9-15.4-2.2-21.8-3.8c0,0.4,0,0.7,0,1.1
				c0,24.9,20.2,45.1,45.1,45.1c24.9,0,45.1-20.2,45.1-45.1c0-0.4,0-0.7,0-1.1C155.4,319,148.1,320.3,140,321.2z"/>
		</g>
	</g>
</g>
</svg>
