<?xml version="1.0" encoding="utf-8"?>
<!-- Generator: Adobe Illustrator 24.3.0, SVG Export Plug-In . SVG Version: 6.00 Build 0)  -->
<svg version="1.1" id="图层_1" xmlns="http://www.w3.org/2000/svg" xmlns:xlink="http://www.w3.org/1999/xlink" x="0px" y="0px"
	 viewBox="0 0 600 600" style="enable-background:new 0 0 600 600;" xml:space="preserve">
<style type="text/css">
	.st0{fill:#5A79DB;}
	.st1{fill:#FFFFFF;}
</style>
<g>
	<g>
		<path d="M120.5,416v-55.2h9.1l24.7-0.1c10,0,17.7,2.3,23.3,7c5.5,4.7,8.3,11.6,8.3,20.6c0,9.1-2.8,15.9-8.3,20.6
			c-5.5,4.7-13.3,7-23.3,7H120.5z M153.5,370.7h-20.6V406h20.6c6.5,0,11.4-1.4,14.8-4.2c3.3-2.8,5-7.3,5-13.4c0-6.1-1.7-10.6-5-13.4
			C164.9,372.1,159.9,370.7,153.5,370.7z"/>
		<path d="M191.6,416v-39.8h30.4c4.5,0,7.8,1.1,9.9,3.4c2.1,2.2,3.2,5.2,3.2,8.8v8.3h-11.4v-6.9c0-3.1-1.5-4.6-4.6-4.6H203V416
			H191.6z"/>
		<path d="M262.5,416.4c-6.9,0-12.3-1.7-16.1-5.1c-3.9-3.4-5.8-8.5-5.8-15.1c0-6.7,1.9-11.8,5.8-15.2c3.9-3.4,9.2-5.1,16.1-5.1h14.3
			c6.9,0,12.3,1.7,16.1,5.1c3.9,3.4,5.8,8.5,5.8,15.2c0,6.6-1.9,11.7-5.8,15.1c-3.9,3.4-9.2,5.1-16.1,5.1H262.5z M262.5,407.5h14.3
			c3.3,0,5.9-0.9,7.7-2.8c1.8-1.9,2.7-4.7,2.7-8.6c0-3.9-0.9-6.8-2.7-8.7c-1.8-1.9-4.3-2.8-7.7-2.8h-14.3c-3.3,0-5.9,0.9-7.7,2.8
			c-1.8,1.9-2.7,4.7-2.7,8.7c0,3.9,0.9,6.7,2.7,8.6C256.6,406.6,259.1,407.5,262.5,407.5z"/>
		<path d="M304.9,433.4v-57.2h28.6c6.9,0,12.3,1.7,16.1,5.1c3.9,3.4,5.8,8.3,5.8,14.8c0,6.5-1.9,11.4-5.8,14.8
			c-3.9,3.4-9.2,5.1-16.1,5.1h-17.4v17.4H304.9z M333.5,385.1h-17.4v22h17.4c3.3,0,5.9-0.9,7.7-2.7c1.8-1.8,2.7-4.6,2.7-8.3
			c0-3.7-0.9-6.4-2.7-8.2C339.4,386,336.8,385.1,333.5,385.1z"/>
		<path d="M361.6,416v-55.2h11.2V416H361.6z"/>
		<path d="M401,416.4c-6.9,0-12.3-1.7-16.1-5.1c-3.9-3.4-5.8-8.5-5.8-15.1c0-6.7,1.9-11.8,5.8-15.2c3.9-3.4,9.2-5.1,16.1-5.1h19.3
			c4.5,0,8,1.1,10.4,3.2c2.4,2.1,3.6,5.2,3.6,9.2c0,8.1-4.7,12.1-14,12.1h-29.2c1.1,4.8,4.4,7.2,9.9,7.2h31.3v8.9H401z M401,384.7
			c-5.3,0-8.6,2.2-9.8,6.7h28.6c1,0,1.8-0.3,2.4-0.9c0.6-0.6,0.9-1.5,0.9-2.5c0-2.2-1.1-3.2-3.3-3.2H401z"/>
		<path d="M462.7,416c-4.5,0-7.8-1.1-9.9-3.4c-2.1-2.2-3.2-5.2-3.2-8.8v-18.7h-11.5v-8.9h11.5V364h11.2v12.2h16.5v8.9h-16.5v17.3
			c0,3.1,1.5,4.7,4.6,4.7h14.1v8.9H462.7z"/>
	</g>
	<g>
		<g>
			<path d="M245.5,251.9c7.2,2.2,17,4,28.4,5.1c0.3-0.5,0.6-1,0.9-1.5l0.1-0.1l0.1-0.1l25-37.9l25,37.9l0.1,0.1l0.1,0.1
				c0.3,0.5,0.6,1,0.9,1.5c11.4-1.1,21.2-2.8,28.4-5.1c-1.6-4.3-3.7-8.3-6.2-12.1l-6-9.1h0l-2.4-3.6h0L300,166.6l-48.3,73.2
				C249.2,243.6,247.1,247.6,245.5,251.9z"/>
		</g>
		<g>
			<path d="M330.1,275.9c-1.7,15.1-14.6,26.8-30.1,26.8c-15.5,0-28.3-11.7-30.1-26.8c-10.4-1.1-19.9-2.8-28.1-4.9
				c0,0.5-0.1,0.9-0.1,1.4c0,32.2,26.1,58.2,58.2,58.2c32.2,0,58.2-26.1,58.2-58.2c0-0.5,0-0.9-0.1-1.4
				C350,273.1,340.5,274.8,330.1,275.9z"/>
		</g>
	</g>
</g>
</svg>
